# xmcd CD database file
#
# Track frame offsets:
#	150
#	17235
#	33501
#	51838
#	67534
#	88535
#	105199
#	121422
#	126155
#	147148
#	168843
#	183939
#	204155
#
# Disc length: 2901 seconds
#
# Revision: 0
# Processed by: cddbd v1.5.2PL0 Copyright (c) Steve Scherf et al.
# Submitted via: CDex 1.70beta2
#
DISCID=9d0b530d
DTITLE=Bone Shakers, The - Book of Spells
DYEAR=1900
DGENRE=Blues
TTITLE0=Cold Sweat
TTITLE1=Break Down the Walls
TTITLE2=I Blew Up the United States
TTITLE3=Part Time Man
TTITLE4=I'm Living All Of My Days For You
TTITLE5=Welcome To My Life
TTITLE6=Why Don't You Want Me?
TTITLE7=Queenie's Groove
TTITLE8=Let's Straighten it Out
TTITLE9=The One You Run To
TTITLE10=Don't Tear My Heart Apart
TTITLE11=Long Way Down
TTITLE12=Fudge Brownie
EXTD=
EXTT0=
EXTT1=
EXTT2=
EXTT3=
EXTT4=
EXTT5=
EXTT6=
EXTT7=
EXTT8=
EXTT9=
EXTT10=
EXTT11=
EXTT12=
PLAYORDER=
